# xmcd
#
# Track frame offsets:
#	150
#	10952
#	24625
#	33677
#	47412
#	60952
#	74595
#	83377
#	93102
#	106157
#	117380
#	129567
#	139497
#	153012
#	172895
#	188795
#	203930
#	216695
#	229625
#	242855
#	253452
#	264932
#	275377
#	290372
#	304465
#	318417
#
# Disc length: 4434
#
# Revision: 1
# Processed by: cddbd v1.5.1PL0 Copyright (c) Steve Scherf et al.
# Submitted via: CDex 1.50Beta7
# Normalized: r0:DSETVAR1,TDELIM( - )
#
DISCID=7711501a
DTITLE=Various Artist - The Original Memphis Blues Brothers
DYEAR=1952
DGENRE=Blues
TTITLE0=Bobby Bland - Good Lovin'
TTITLE1=Bobby Bland - Drifting From Town To Town
TTITLE2=Bobby Bland - Dry Up Baby
TTITLE3=Bobby Bland - Crying All Night Long
TTITLE4=Bobby Bland and Little Junior Parker - Love Me Baby
TTITLE5=Little Junior Parker - Bad Women, Bad Whiskey
TTITLE6=Little Junior Parker - You're My Angel
TTITLE7=Earl Forrest - She Calls Me Daddy
TTITLE8=Earl Forrest - I Wronged A Woman
TTITLE9=Earl Forrest - I Can't Forgive You
TTITLE10=Earl Forret - Sad And Lonely
TTITLE11=Earl Forrest - Rumpus Romp
TTITLE12=Earl Forrest - Trouble And Me
TTITLE13=Earl Forrest - I Cried
TTITLE14=Johnny Ace - Midnight Hours Journey
TTITLE15=B.B. King - B.B.'s Boogie
TTITLE16=B.B. King - Mistreated Woman
TTITLE17=B.B. King - The Other Night Blues
TTITLE18=B.B. King - Walkin' And Cryin'
TTITLE19=Ike Turner - You're Driving Me Insane
TTITLE20=Ike Turner - Trouble And Heartaches
TTITLE21=Rosco Gordon - That Gal of Mine
TTITLE22=Rosco Gordon - So Tired
TTITLE23=Rosco Gordon - Run To Me Baby
TTITLE24=Rosco Gordon - She Rocks Me
TTITLE25=Rosco Gordon - Don't Have To Worry 'bout You No More
EXTD=YEAR: 1952
EXTT0=
EXTT1=
EXTT2=
EXTT3=
EXTT4=
EXTT5=
EXTT6=
EXTT7=
EXTT8=
EXTT9=
EXTT10=
EXTT11=
EXTT12=
EXTT13=
EXTT14=
EXTT15=
EXTT16=
EXTT17=
EXTT18=
EXTT19=
EXTT20=
EXTT21=
EXTT22=
EXTT23=
EXTT24=
EXTT25=
PLAYORDER=
